<?xml version="1.0" encoding="utf-8"?>
<!-- Generator: Adobe Illustrator 26.3.1, SVG Export Plug-In . SVG Version: 6.00 Build 0)  -->
<svg version="1.1" id="Layer_1" xmlns="http://www.w3.org/2000/svg" xmlns:xlink="http://www.w3.org/1999/xlink" x="0px" y="0px"
	 viewBox="0 0 153 153" style="enable-background:new 0 0 153 153;" xml:space="preserve">
<style type="text/css">
	.st0{display:none;}
	.st1{display:inline;}
	.st2{fill:#EDB941;}
	.st3{display:inline;opacity:0.5;fill:#FFFFFF;}
	.st4{display:inline;fill:none;stroke:#0D1828;stroke-width:5;stroke-linecap:round;stroke-miterlimit:10;}
	.st5{fill:#0D1828;}
	.st6{display:inline;fill:none;stroke:#0D1828;stroke-width:4;stroke-linecap:round;stroke-miterlimit:10;}
	.st7{opacity:0.5;}
	.st8{fill:#F1F0F0;}
	.st9{fill:#B7B7B7;}
	.st10{display:inline;opacity:0.5;}
	.st11{fill:#231F20;}
	.st12{fill:none;stroke:#231F20;stroke-width:4.3842;}
</style>
<g class="st0">
	<g class="st1">
		<circle class="st2" cx="76.02" cy="76.75" r="72.43"/>
	</g>
	<path class="st3" d="M98.89,127.72H60.88c-8.29,0-15-6.72-15-15V50.06c0-8.29,6.72-15,15-15h38.01c8.29,0,15,6.72,15,15v62.66
		C113.9,121,107.18,127.72,98.89,127.72z"/>
	<path class="st4" d="M94.66,123.49H56.66c-8.29,0-15-6.72-15-15V45.83c0-8.29,6.72-15,15-15h38.01c8.29,0,15,6.72,15,15v62.66
		C109.67,116.77,102.95,123.49,94.66,123.49z"/>
	<g class="st1">
		<path class="st5" d="M58.84,52.94l-2.86-4.13h-0.17h-2.99v4.13H49.4V38.12h6.42c3.96,0,6.44,2.05,6.44,5.38
			c0,2.22-1.12,3.85-3.05,4.68l3.32,4.76H58.84z M55.63,40.92h-2.8v5.17h2.8c2.1,0,3.16-0.97,3.16-2.58
			C58.78,41.87,57.72,40.92,55.63,40.92z"/>
	</g>
	<g class="st1">
		<path class="st5" d="M69.53,67.77l-3.58-5.15l-3.52,5.15H58.5l5.48-7.54l-5.14-7.28h3.68l3.55,4.81l3.35-4.81h3.71l-5.17,7.16
			l5.53,7.67H69.53z"/>
	</g>
	<line class="st6" x1="47.51" y1="80.63" x2="103" y2="80.63"/>
	<line class="st6" x1="47.51" y1="95.9" x2="99.3" y2="95.9"/>
	<line class="st6" x1="47.51" y1="88.65" x2="89.9" y2="88.65"/>
</g>
<g>
	<g>
		<circle class="st2" cx="76.02" cy="76.67" r="72.43"/>
	</g>
	<g>
		<g class="st7">
			<g>
				<path class="st8" d="M92.54,57.6c0-7.59-6.66-12.4-16.74-12.4c-9.92,0-17.51,4.34-22.47,11.47l-18.75-11
					c8.37-12.71,22.94-20.77,43.86-20.77c23.25,0,39.37,10.38,39.37,28.67c0,24.8-26.04,27.59-26.04,44.02h-23.4
					C68.36,75.89,92.54,71.08,92.54,57.6z M65.26,122.39c0-7.9,6.2-13.79,14.88-13.79c8.68,0,14.88,5.89,14.88,13.79
					c0,7.75-6.2,14.1-14.88,14.1C71.46,136.49,65.26,130.14,65.26,122.39z"/>
			</g>
		</g>
		<g>
			<g>
				<path class="st5" d="M76.11,134.48c-9.47,0-16.89-7.08-16.89-16.12c0-9.16,7.1-15.81,16.89-15.81s16.89,6.65,16.89,15.81
					C93.01,127.4,85.59,134.48,76.11,134.48z M76.11,106.58c-7.46,0-12.87,4.96-12.87,11.78c0,6.89,5.53,12.09,12.87,12.09
					c7.34,0,12.87-5.2,12.87-12.09C88.98,111.53,83.57,106.58,76.11,106.58z M87.74,95.57h-23.4c-1.11,0-2.01-0.9-2.01-2.01
					c0-13.03,8.25-20.51,14.89-26.52c4.99-4.52,9.29-8.42,9.29-13.47c0-6.41-5.64-10.39-14.73-10.39c-8.8,0-15.99,3.67-20.82,10.61
					c-0.6,0.86-1.77,1.12-2.67,0.59l-18.75-11c-0.48-0.28-0.82-0.74-0.94-1.28c-0.12-0.54-0.02-1.1,0.28-1.56
					c9.34-14.18,25.09-21.68,45.54-21.68c25.14,0,41.38,12.05,41.38,30.69c0,14.58-8.34,21.94-15.7,28.43
					c-5.55,4.9-10.34,9.12-10.34,15.59C89.75,94.67,88.85,95.57,87.74,95.57z M66.42,91.55h19.42c0.84-7.11,6.07-11.73,11.59-16.59
					c7.05-6.22,14.34-12.65,14.34-25.41c0-16.45-14.31-26.66-37.36-26.66c-18.17,0-32.28,6.26-40.97,18.12l15.32,8.99
					c5.58-7.09,13.5-10.83,23.02-10.83c11.22,0,18.75,5.79,18.75,14.41c0,6.84-5.16,11.51-10.61,16.45
					C73.65,75.7,67.19,81.55,66.42,91.55z"/>
			</g>
		</g>
	</g>
</g>
<g class="st0">
	<g class="st1">
		<circle class="st2" cx="76.02" cy="76.67" r="72.43"/>
	</g>
	<g class="st1">
		<g class="st7">
			<path class="st8" d="M113.5,46.52c-9.45-4.22-18.51-9.59-27.02-16.02l-6.43-4.86l-7.59,5.69c-9.13,6.85-18.87,12.47-29.05,16.78
				l-7.3,3.08v25.3c0,32.72,43.93,59.25,43.93,59.25s43.93-26.53,43.93-59.25v-25.3L113.5,46.52z"/>
		</g>
		<g>
			<path class="st5" d="M76.02,133.73c-0.36,0-0.72-0.1-1.04-0.29c-0.46-0.28-11.31-6.88-22.33-17.64
				c-14.77-14.42-22.57-29.4-22.57-43.34v-25.3c0-0.81,0.48-1.54,1.23-1.85l7.3-3.08C48.62,38,58.25,32.43,67.23,25.7l7.59-5.69
				c0.72-0.54,1.71-0.54,2.42,0l6.43,4.86C92.04,31.19,101,36.5,110.3,40.65l0,0l10.48,4.67c0.72,0.32,1.19,1.04,1.19,1.84v25.3
				c0,13.93-7.81,28.92-22.57,43.34c-11.02,10.76-21.88,17.36-22.33,17.64C76.75,133.63,76.38,133.73,76.02,133.73z M34.1,48.5
				v23.97c0,28.44,35.35,52.62,41.92,56.87c6.57-4.25,41.92-28.43,41.92-56.87v-24l-9.29-4.14c-9.58-4.27-18.8-9.74-27.42-16.25
				l-5.22-3.94l-6.37,4.78c-9.24,6.93-19.16,12.66-29.47,17.02L34.1,48.5z"/>
		</g>
	</g>
	<g class="st1">
		<rect x="67.35" y="47.17" class="st5" width="17.36" height="51.1"/>
	</g>
	<g class="st1">
		
			<rect x="67.35" y="47.17" transform="matrix(6.123234e-17 -1 1 6.123234e-17 3.3048 148.7439)" class="st5" width="17.36" height="51.1"/>
	</g>
</g>
<g class="st0">
	<g class="st1">
		<circle class="st2" cx="76.02" cy="76.67" r="72.43"/>
	</g>
	<g class="st1">
		<g>
			<g class="st7">
				<path class="st8" d="M125.71,76.78L61.3,122.47c-10.45,7.42-24.94,4.95-32.36-5.5l0,0c-7.42-10.45-4.95-24.94,5.5-32.36
					l64.41-45.69c10.45-7.42,24.94-4.95,32.36,5.5l0,0C138.63,54.88,136.16,69.36,125.71,76.78z"/>
			</g>
			<g>
				<path class="st5" d="M43.88,124.72c-7.91,0-15.7-3.7-20.61-10.62c-3.9-5.5-5.42-12.18-4.29-18.82
					c1.13-6.64,4.78-12.45,10.27-16.34l64.41-45.69c11.35-8.05,27.12-5.36,35.16,5.98c8.05,11.34,5.36,27.12-5.98,35.16l0,0
					l-64.41,45.69C54.02,123.22,48.93,124.72,43.88,124.72z M108.23,32.64c-4.24,0-8.52,1.27-12.23,3.9L31.58,82.22
					c-4.62,3.28-7.69,8.15-8.63,13.73c-0.95,5.58,0.33,11.2,3.61,15.82c6.76,9.53,20.02,11.79,29.55,5.03l64.41-45.69
					c9.53-6.76,11.79-20.02,5.03-29.55C121.42,35.74,114.87,32.64,108.23,32.64z M121.68,72.75h0.01H121.68z"/>
			</g>
		</g>
		<g>
			<path class="st5" d="M74.12,100.55c-0.63,0-1.25-0.29-1.64-0.85L53.13,72.43c-0.31-0.44-0.43-0.98-0.34-1.5
				c0.09-0.53,0.38-1,0.82-1.3l23.21-16.46c0.91-0.64,2.16-0.43,2.81,0.48l19.34,27.27c0.31,0.44,0.43,0.98,0.34,1.5
				c-0.09,0.53-0.38,1-0.82,1.3l-23.21,16.46C74.93,100.43,74.52,100.55,74.12,100.55z M57.58,71.74l17.01,23.99l19.93-14.13
				L77.51,57.61L57.58,71.74z"/>
		</g>
		<g>
			<g>
				<circle class="st5" cx="31.49" cy="106.7" r="2.96"/>
			</g>
			<g>
				<circle class="st5" cx="41.58" cy="109.15" r="2.96"/>
			</g>
			<g>
				<circle class="st5" cx="37.05" cy="102.76" r="2.96"/>
			</g>
			<g>
				<circle class="st5" cx="32.85" cy="96.85" r="2.96"/>
			</g>
			<g>
				<circle class="st5" cx="47.04" cy="105.29" r="2.96"/>
			</g>
			<g>
				<circle class="st5" cx="42.5" cy="98.89" r="2.96"/>
			</g>
			<g>
				<circle class="st5" cx="38.31" cy="92.98" r="2.96"/>
			</g>
		</g>
		<g>
			<g>
				<circle class="st5" cx="119.58" cy="44.22" r="2.96"/>
			</g>
			<g>
				<circle class="st5" cx="118.56" cy="54.56" r="2.96"/>
			</g>
			<g>
				<circle class="st5" cx="114.02" cy="48.16" r="2.96"/>
			</g>
			<g>
				<circle class="st5" cx="109.83" cy="42.25" r="2.96"/>
			</g>
			<g>
				<circle class="st5" cx="113.1" cy="58.43" r="2.96"/>
			</g>
			<g>
				<circle class="st5" cx="108.57" cy="52.03" r="2.96"/>
			</g>
			<g>
				<circle class="st5" cx="104.37" cy="46.12" r="2.96"/>
			</g>
		</g>
	</g>
</g>
<g class="st0">
	<g class="st1">
		<circle class="st8" cx="76.02" cy="76.67" r="72.43"/>
	</g>
	<g class="st1">
		<g>
			<path class="st2" d="M107.56,74.13c0-15.87-13.05-28.68-29-28.31c-15,0.35-27.24,12.57-27.63,27.57
				c-0.15,5.85,1.48,11.31,4.38,15.88c2.02,3.19,3.52,6.67,4.28,10.37l4.3,17.13h30.7l4.3-17.13c0.75-3.62,2.15-7.07,4.16-10.17
				C105.9,85.05,107.56,79.78,107.56,74.13z"/>
		</g>
		<g>
			<path class="st5" d="M92.14,114.76H58.3l-4.69-18.65c-0.7-3.41-2.05-6.67-4.03-9.78c-3.22-5.08-4.84-10.96-4.69-17.01
				c0.41-16.18,13.41-29.15,29.59-29.53c8.27-0.2,16.03,2.87,21.92,8.62c5.89,5.76,9.14,13.46,9.14,21.7
				c0,5.85-1.67,11.53-4.83,16.42c-1.87,2.9-3.18,6.09-3.88,9.49L92.14,114.76z M61.44,110.73H89l3.92-15.61
				c0.78-3.8,2.28-7.46,4.42-10.77c2.74-4.24,4.19-9.17,4.19-14.24c0-7.14-2.81-13.82-7.93-18.82c-5.11-4.99-11.83-7.65-19.01-7.48
				c-14.03,0.33-25.3,11.58-25.66,25.61c-0.13,5.25,1.27,10.35,4.06,14.75c2.24,3.52,3.77,7.24,4.55,11.04L61.44,110.73z"/>
		</g>
	</g>
	<g class="st1">
		<path class="st5" d="M58.28,119.59v6.03c0,4.86,3.56,8.89,8.21,9.63c0.63,2.76,3.09,4.82,6.03,4.82h5.39
			c2.95,0,5.41-2.06,6.03-4.82c4.65-0.74,8.21-4.77,8.21-9.63v-6.03H58.28z"/>
	</g>
	<g class="st1">
		<path class="st5" d="M56.97,72.83c-1.85,0-3.35-1.5-3.35-3.35c0-11.19,9.1-20.29,20.29-20.29c1.85,0,3.35,1.5,3.35,3.35
			s-1.5,3.35-3.35,3.35c-7.49,0-13.58,6.09-13.58,13.58C60.32,71.32,58.82,72.83,56.97,72.83z"/>
	</g>
	<g class="st1">
		<path class="st5" d="M75.23,32.58c-1.85,0-3.35-1.5-3.35-3.35V14.78c0-1.85,1.5-3.35,3.35-3.35s3.35,1.5,3.35,3.35v14.44
			C78.58,31.08,77.08,32.58,75.23,32.58z"/>
	</g>
	<g class="st1">
		<path class="st5" d="M131.5,73.48h-14.44c-1.85,0-3.35-1.5-3.35-3.35c0-1.85,1.5-3.35,3.35-3.35h14.44c1.85,0,3.35,1.5,3.35,3.35
			C134.86,71.98,133.36,73.48,131.5,73.48z"/>
	</g>
	<g class="st1">
		<path class="st5" d="M33.48,73.81H19.03c-1.85,0-3.35-1.5-3.35-3.35c0-1.85,1.5-3.35,3.35-3.35h14.44c1.85,0,3.35,1.5,3.35,3.35
			C36.83,72.31,35.33,73.81,33.48,73.81z"/>
	</g>
	<g class="st1">
		<path class="st5" d="M34.58,114c-0.86,0-1.72-0.33-2.37-0.98c-1.31-1.31-1.31-3.43,0-4.74l10.21-10.21c1.31-1.31,3.43-1.31,4.74,0
			c1.31,1.31,1.31,3.43,0,4.74l-10.21,10.21C36.3,113.67,35.44,114,34.58,114z"/>
	</g>
	<g class="st1">
		<path class="st5" d="M115.32,114c-0.86,0-1.72-0.33-2.37-0.98l-10.21-10.21c-1.31-1.31-1.31-3.43,0-4.74
			c1.31-1.31,3.43-1.31,4.74,0l10.21,10.21c1.31,1.31,1.31,3.43,0,4.74C117.03,113.67,116.17,114,115.32,114z"/>
	</g>
	<g class="st1">
		<path class="st5" d="M46.91,45.15c-0.86,0-1.72-0.33-2.37-0.98L34.32,33.95c-1.31-1.31-1.31-3.43,0-4.74
			c1.31-1.31,3.43-1.31,4.74,0l10.21,10.21c1.31,1.31,1.31,3.43,0,4.74C48.62,44.82,47.77,45.15,46.91,45.15z"/>
	</g>
	<g class="st1">
		<path class="st5" d="M105.1,45.15c-0.86,0-1.72-0.33-2.37-0.98c-1.31-1.31-1.31-3.43,0-4.74l10.21-10.21
			c1.31-1.31,3.43-1.31,4.74,0c1.31,1.31,1.31,3.43,0,4.74l-10.21,10.21C106.82,44.82,105.96,45.15,105.1,45.15z"/>
	</g>
</g>
<g class="st0">
	<g class="st1">
		<circle class="st2" cx="76.02" cy="76.67" r="72.43"/>
	</g>
	<g class="st1">
		<g class="st7">
			<path class="st8" d="M64.43,135.87L64.43,135.87c-14.16-3.52-22.79-17.86-19.27-32.02l15.17-60.97
				C63.86,28.72,78.2,20.1,92.36,23.62l0,0c14.16,3.52,22.79,17.86,19.26,32.02l-15.17,60.97C92.94,130.77,78.6,139.4,64.43,135.87z
				"/>
		</g>
		<g>
			<path class="st5" d="M66.79,134.65c-2.27,0-4.57-0.27-6.86-0.84c-15.22-3.78-24.52-19.24-20.73-34.46l15.17-60.97
				c3.79-15.22,19.24-24.52,34.46-20.73c15.22,3.78,24.52,19.24,20.73,34.46l-15.17,60.97C91.17,125.99,79.54,134.65,66.79,134.65z
				 M81.96,20.82c-10.95,0-20.93,7.43-23.69,18.52L43.1,100.31c-3.25,13.06,4.73,26.33,17.8,29.58l0,0
				c13.07,3.25,26.34-4.73,29.58-17.8l15.17-60.97c3.25-13.06-4.73-26.33-17.8-29.58C85.88,21.06,83.9,20.82,81.96,20.82z"/>
		</g>
	</g>
	<g class="st1">
		<path class="st5" d="M61.33,57.12c-0.19,0-0.38-0.02-0.57-0.07c-1.26-0.31-2.02-1.59-1.71-2.85l3.44-13.81
			C65.16,29.66,76.06,23.1,86.8,25.77c1.26,0.31,2.02,1.59,1.71,2.85c-0.31,1.26-1.58,2.03-2.85,1.71
			c-8.22-2.05-16.57,2.98-18.62,11.2l-3.44,13.81C63.34,56.41,62.38,57.12,61.33,57.12z"/>
	</g>
	<g class="st1">
		<path class="st5" d="M66.81,126.27c-1.62,0-3.25-0.2-4.86-0.6c-1.26-0.31-2.02-1.59-1.71-2.85c0.31-1.26,1.58-2.02,2.85-1.71
			c3.97,0.99,8.1,0.37,11.62-1.75c3.52-2.12,6-5.47,6.99-9.45l2.77-11.12c0.31-1.26,1.58-2.03,2.85-1.71
			c1.26,0.31,2.02,1.59,1.71,2.85l-2.77,11.12c-1.29,5.19-4.53,9.57-9.13,12.34C73.96,125.29,70.41,126.27,66.81,126.27z"/>
	</g>
	<g class="st1">
		<path class="st5" d="M64.55,65.9l5.86-23.54c1.58-6.37,8.06-10.26,14.42-8.68c6.37,1.58,10.26,8.06,8.68,14.42l-5.86,23.54"/>
	</g>
	<g class="st1">
		
			<rect x="72.11" y="50.28" transform="matrix(0.2414 -0.9704 0.9704 0.2414 -18.2002 130.1216)" class="st5" width="4.03" height="52.85"/>
	</g>
</g>
<g class="st0">
	<g class="st1">
		<circle class="st9" cx="76.02" cy="76.67" r="72.43"/>
	</g>
	<g class="st10">
		<rect x="46.87" y="38.36" class="st8" width="65.85" height="80.18"/>
	</g>
	<g class="st1">
		<path class="st5" d="M98.5,116.02H43.1c-1.11,0-2.01-0.9-2.01-2.01l0-8.97c0-1.11,0.9-2.01,2.01-2.01c1.11,0,2.01,0.9,2.01,2.01
			l0,6.96H98.5c1.11,0,2.01,0.9,2.01,2.01C100.52,115.12,99.62,116.02,98.5,116.02z"/>
	</g>
	<g class="st1">
		<path class="st5" d="M108.95,60.24c-1.11,0-2.01-0.9-2.01-2.01V35.85H45.11v4.62c0,1.11-0.9,2.01-2.01,2.01
			c-1.11,0-2.01-0.9-2.01-2.01v-6.63c0-1.11,0.9-2.01,2.01-2.01h65.85c1.11,0,2.01,0.9,2.01,2.01v24.39
			C110.96,59.34,110.06,60.24,108.95,60.24z"/>
	</g>
	<g class="st1">
		<line class="st8" x1="43.1" y1="77.69" x2="43.1" y2="69.24"/>
		<path class="st5" d="M43.1,79.71c-1.11,0-2.01-0.9-2.01-2.01v-8.45c0-1.11,0.9-2.01,2.01-2.01c1.11,0,2.01,0.9,2.01,2.01v8.45
			C45.11,78.81,44.21,79.71,43.1,79.71z"/>
	</g>
	<g class="st1">
		<line class="st8" x1="43.1" y1="59.4" x2="43.1" y2="50.95"/>
		<path class="st5" d="M43.1,61.41c-1.11,0-2.01-0.9-2.01-2.01v-8.45c0-1.11,0.9-2.01,2.01-2.01c1.11,0,2.01,0.9,2.01,2.01v8.45
			C45.11,60.51,44.21,61.41,43.1,61.41z"/>
	</g>
	<g class="st1">
		<line class="st8" x1="43.1" y1="96.06" x2="43.1" y2="87.6"/>
		<path class="st5" d="M43.1,98.07c-1.11,0-2.01-0.9-2.01-2.01V87.6c0-1.11,0.9-2.01,2.01-2.01c1.11,0,2.01,0.9,2.01,2.01v8.45
			C45.11,97.17,44.21,98.07,43.1,98.07z"/>
	</g>
	<g class="st1">
		<path class="st5" d="M48.36,43.55H37.84c-1.11,0-2.01-0.9-2.01-2.01s0.9-2.01,2.01-2.01h10.52c1.11,0,2.01,0.9,2.01,2.01
			S49.47,43.55,48.36,43.55z"/>
	</g>
	<g class="st1">
		<path class="st5" d="M48.36,62.73H37.84c-1.11,0-2.01-0.9-2.01-2.01c0-1.11,0.9-2.01,2.01-2.01h10.52c1.11,0,2.01,0.9,2.01,2.01
			C50.37,61.83,49.47,62.73,48.36,62.73z"/>
	</g>
	<g class="st1">
		<path class="st5" d="M48.36,80.63H37.84c-1.11,0-2.01-0.9-2.01-2.01c0-1.11,0.9-2.01,2.01-2.01h10.52c1.11,0,2.01,0.9,2.01,2.01
			C50.37,79.73,49.47,80.63,48.36,80.63z"/>
	</g>
	<g class="st1">
		<rect x="102.27" y="77.69" class="st2" width="13.35" height="42.05"/>
		<path class="st5" d="M115.63,121.09h-13.35c-0.74,0-1.34-0.6-1.34-1.34V77.69c0-0.74,0.6-1.34,1.34-1.34h13.35
			c0.74,0,1.34,0.6,1.34,1.34v42.05C116.97,120.49,116.37,121.09,115.63,121.09z M103.61,118.41h10.67V79.04h-10.67V118.41z"/>
	</g>
	<g class="st1">
		<polygon class="st2" points="115.63,77.84 102.27,77.84 109.02,62.6 109.02,62.6 		"/>
		<path class="st5" d="M115.63,79.18h-13.35c-0.45,0-0.88-0.23-1.12-0.61c-0.25-0.38-0.29-0.86-0.1-1.27l6.74-15.24
			c0.21-0.49,0.7-0.8,1.23-0.8c0,0,0,0,0.01,0c0.53,0,1.01,0.32,1.23,0.81l6.61,15.24c0.18,0.41,0.14,0.89-0.11,1.27
			C116.5,78.95,116.08,79.18,115.63,79.18z M104.33,76.49h9.25l-4.58-10.55L104.33,76.49z"/>
	</g>
	<g class="st1">
		<path class="st5" d="M48.36,98.96H37.84c-1.11,0-2.01-0.9-2.01-2.01s0.9-2.01,2.01-2.01h10.52c1.11,0,2.01,0.9,2.01,2.01
			S49.47,98.96,48.36,98.96z"/>
	</g>
	<g class="st1">
		<path class="st5" d="M95.24,64.28H58.3c-1.11,0-2.01-0.9-2.01-2.01V44.73c0-1.11,0.9-2.01,2.01-2.01h36.94
			c1.11,0,2.01,0.9,2.01,2.01v17.54C97.25,63.38,96.35,64.28,95.24,64.28z M60.31,60.26h32.91V46.74H60.31V60.26z"/>
	</g>
	<g class="st1">
		<path class="st5" d="M111.86,73.34h-7c-0.74,0-1.34-0.6-1.34-1.34c0-0.74,0.6-1.34,1.34-1.34h7c0.74,0,1.34,0.6,1.34,1.34
			C113.2,72.74,112.6,73.34,111.86,73.34z"/>
	</g>
</g>
<g class="st0">
	<g class="st1">
		<circle class="st2" cx="76.02" cy="76.67" r="72.43"/>
	</g>
	<g class="st10">
		<circle class="st8" cx="80.37" cy="81.01" r="49.34"/>
	</g>
	<g class="st1">
		<path class="st5" d="M76.02,90.44c-7.59,0-13.77-6.18-13.77-13.77c0-7.59,6.18-13.77,13.77-13.77s13.77,6.18,13.77,13.77
			C89.79,84.26,83.62,90.44,76.02,90.44z M76.02,66.92c-5.37,0-9.75,4.37-9.75,9.75s4.37,9.75,9.75,9.75s9.75-4.37,9.75-9.75
			S81.4,66.92,76.02,66.92z"/>
	</g>
	<g class="st1">
		<circle class="st5" cx="76.02" cy="76.67" r="4.35"/>
	</g>
	<g class="st1">
		<path class="st5" d="M76.02,113.57c-20.35,0-36.9-16.56-36.9-36.9s16.56-36.9,36.9-36.9s36.9,16.56,36.9,36.9
			S96.37,113.57,76.02,113.57z M76.02,43.79c-18.13,0-32.88,14.75-32.88,32.88s14.75,32.88,32.88,32.88S108.9,94.8,108.9,76.67
			S94.15,43.79,76.02,43.79z"/>
	</g>
	<g class="st1">
		<path class="st5" d="M76.02,128.02c-28.32,0-51.36-23.04-51.36-51.36s23.04-51.36,51.36-51.36s51.36,23.04,51.36,51.36
			S104.34,128.02,76.02,128.02z M76.02,29.34c-26.1,0-47.33,21.23-47.33,47.33S49.93,124,76.02,124s47.33-21.23,47.33-47.33
			S102.12,29.34,76.02,29.34z"/>
	</g>
	<g class="st1">
		<path class="st5" d="M76.02,54.84c-1.11,0-2.01-0.9-2.01-2.01v-25.5c0-1.11,0.9-2.01,2.01-2.01c1.11,0,2.01,0.9,2.01,2.01v25.5
			C78.04,53.94,77.14,54.84,76.02,54.84z"/>
	</g>
	<g class="st1">
		<path class="st5" d="M76.02,126.32c-1.11,0-2.01-0.9-2.01-2.01v-25.5c0-1.11,0.9-2.01,2.01-2.01c1.11,0,2.01,0.9,2.01,2.01v25.5
			C78.04,125.42,77.14,126.32,76.02,126.32z"/>
	</g>
	<g class="st1">
		<path class="st5" d="M53.03,77.83h-25.5c-1.11,0-2.01-0.9-2.01-2.01c0-1.11,0.9-2.01,2.01-2.01h25.5c1.11,0,2.01,0.9,2.01,2.01
			C55.05,76.93,54.14,77.83,53.03,77.83z"/>
	</g>
	<g class="st1">
		<path class="st5" d="M124.52,77.83h-25.5c-1.11,0-2.01-0.9-2.01-2.01c0-1.11,0.9-2.01,2.01-2.01h25.5c1.11,0,2.01,0.9,2.01,2.01
			C126.53,76.93,125.63,77.83,124.52,77.83z"/>
	</g>
</g>
<g class="st0">
	<g class="st1">
		<circle class="st2" cx="76.02" cy="76.67" r="72.43"/>
	</g>
	<g class="st10">
		<circle class="st8" cx="63.34" cy="62.68" r="37.94"/>
	</g>
	<g class="st1">
		<path class="st11" d="M61.32,85.23l-3.76-6.87c-3.21-5.86-8-10.65-13.86-13.86l-6.87-3.76l6.87-3.76
			c5.86-3.21,10.66-8,13.86-13.86l3.76-6.87l3.76,6.87c3.21,5.86,8,10.65,13.86,13.86l6.87,3.76l-6.87,3.76
			c-5.86,3.21-10.65,8-13.86,13.86L61.32,85.23z M45.22,60.74l0.41,0.23c6.54,3.58,11.89,8.92,15.46,15.46l0.23,0.41l0.23-0.41
			c3.58-6.54,8.92-11.88,15.46-15.46l0.41-0.23l-0.41-0.23c-6.54-3.58-11.88-8.92-15.46-15.46l-0.23-0.41l-0.23,0.41
			c-3.58,6.54-8.92,11.89-15.46,15.46L45.22,60.74z"/>
	</g>
	<g class="st1">
		<path class="st11" d="M72.01,109.64l0.48,0.88c0.82,1.49,2.04,2.72,3.53,3.53l0.88,0.48L76.02,115c-1.49,0.82-2.72,2.04-3.53,3.53
			l-0.48,0.88l-0.48-0.88c-0.82-1.49-2.04-2.72-3.53-3.53l-0.88-0.48l0.88-0.48c1.49-0.82,2.72-2.04,3.53-3.53L72.01,109.64z"/>
	</g>
	<g class="st1">
		<path class="st11" d="M118.33,44.1l0.48,0.88c0.82,1.49,2.04,2.72,3.53,3.53l0.88,0.48l-0.88,0.48c-1.49,0.82-2.72,2.04-3.53,3.53
			l-0.48,0.88L117.85,53c-0.82-1.49-2.04-2.72-3.53-3.53l-0.88-0.48l0.88-0.48c1.49-0.82,2.72-2.04,3.53-3.53L118.33,44.1z"/>
	</g>
	<g class="st1">
		<g>
			<path d="M90.6,81.09c1.97,2.09,3.91,4.14,5.84,6.21c7.37,7.92,14.74,15.84,22.1,23.78c2.73,2.94,2.56,7.12-0.37,9.85
				c-0.97,0.9-1.95,1.8-2.91,2.71c-3.19,2.99-7.27,2.87-10.25-0.33c-5.99-6.44-11.98-12.89-17.96-19.35
				c-3.24-3.49-6.47-6.99-9.68-10.51c-0.43-0.47-0.76-0.57-1.37-0.29c-14.66,6.78-31.34,4.03-42.94-7.19
				c-6.17-5.98-9.92-13.3-11.04-21.84c-1.62-12.3,1.86-23.04,10.43-31.99c5.99-6.25,13.38-10,21.99-11.12
				c11.9-1.55,22.4,1.69,31.24,9.82c7.56,6.96,11.49,15.72,12.05,25.96c0.47,8.63-1.83,16.51-6.7,23.64
				C90.9,80.63,90.79,80.8,90.6,81.09z M59.67,93.05c18.78,0,34.32-15.38,34.35-33.97C94.06,39.67,78.7,24.9,60.39,24.54
				C41.06,24.15,25.44,39.91,25.5,58.79C25.56,77.71,40.81,93.05,59.67,93.05z"/>
		</g>
		<g>
			<path d="M28.33,55.95c0.18-12.57,9.85-24.04,22.33-26.4c1.74-0.33,3.52-0.44,5.29-0.55c1.34-0.08,2.17,0.71,2.17,1.87
				c0,1.16-0.81,1.88-2.16,1.91C44.84,33,35.47,40.39,32.83,51.13c-0.44,1.8-0.53,3.68-0.7,5.54c-0.11,1.17-0.62,1.93-1.61,2.09
				c-1.13,0.19-2.12-0.58-2.2-1.73C28.31,56.68,28.33,56.31,28.33,55.95z"/>
		</g>
	</g>
	<g class="st1">
		<circle class="st11" cx="107.17" cy="55.81" r="2.42"/>
	</g>
</g>
<g class="st0">
	<g class="st1">
		<circle class="st8" cx="76.02" cy="76.67" r="72.43"/>
	</g>
	<g class="st1">
		<g>
			<path class="st2" d="M75.92,118.16H34.87V86.55c0-11.64,2.42-20.82,7.27-27.55s13.15-12.68,24.91-17.83l8.87,16.8
				c-7.23,3.4-12.24,6.78-15,10.14c-2.77,3.37-4.31,7.34-4.62,11.94h19.63V118.16z M125.95,118.16H84.9V86.55
				c0-11.64,2.42-20.82,7.27-27.55s13.15-12.68,24.91-17.83l8.87,16.8c-7.23,3.4-12.24,6.78-15,10.14
				c-2.77,3.37-4.31,7.34-4.62,11.94h19.63V118.16z"/>
		</g>
		<g>
			<path class="st12" d="M71.53,111.59H30.48V79.98c0-11.64,2.42-20.82,7.27-27.55S50.9,39.75,62.66,34.59l8.87,16.8
				c-7.23,3.4-12.24,6.78-15,10.14c-2.77,3.37-4.31,7.34-4.62,11.94h19.63V111.59z M121.56,111.59H80.52V79.98
				c0-11.64,2.42-20.82,7.27-27.55s13.15-12.68,24.91-17.83l8.87,16.8c-7.23,3.4-12.24,6.78-15,10.14
				c-2.77,3.37-4.31,7.34-4.62,11.94h19.63V111.59z"/>
		</g>
	</g>
</g>
</svg>
